 <svg version="1.0" xmlns="http://www.w3.org/2000/svg" width="700.000000pt" height="408.000000pt" viewBox="0 0 700.000000 408.000000" preserveAspectRatio="xMidYMid meet">
<metadata>
Created by potrace 1.12, written by Peter Selinger 2001-2015
</metadata>
<g transform="translate(0.000000,408.000000) scale(0.100000,-0.100000)" fill="#000000" stroke="none">
<path d="M2914 3446 c-17 -8 -44 -31 -60 -52 l-29 -37 -3 -211 c-2 -116 -1
-225 3 -243 26 -143 267 -181 361 -57 l29 37 3 221 c3 214 2 222 -20 266 -32
63 -88 90 -183 90 -38 -1 -84 -7 -101 -14z m126 -325 c0 -218 -5 -250 -33
-222 -8 8 -13 73 -15 194 -4 211 0 247 28 247 19 0 20 -8 20 -219z"></path>
<path d="M3595 3446 c-35 -15 -82 -67 -91 -100 -3 -12 -4 -123 -2 -246 3 -214
4 -227 25 -256 65 -91 255 -98 327 -13 41 49 48 95 44 313 -3 192 -4 203 -27
240 -33 52 -87 76 -176 75 -38 0 -84 -6 -100 -13z m123 -329 c2 -193 1 -218
-14 -224 -9 -3 -20 0 -25 8 -10 16 -12 422 -2 433 4 4 14 5 23 4 13 -3 15 -34
18 -221z"></path>
<path d="M4594 3449 c-18 -5 -47 -27 -67 -48 -31 -35 -36 -47 -42 -115 -4 -42
-6 -148 -3 -235 4 -151 5 -160 30 -198 14 -22 41 -47 60 -55 54 -25 137 -31
188 -13 53 19 76 38 101 87 17 33 19 61 19 249 0 210 0 213 -26 257 -33 56
-86 82 -169 81 -33 0 -74 -5 -91 -10z m157 -20 c19 -7 45 -21 58 -33 45 -40
51 -72 51 -279 0 -180 -1 -196 -22 -237 -30 -56 -74 -80 -151 -80 -66 0 -112
17 -145 53 -33 35 -45 137 -40 322 6 189 19 220 105 251 47 16 100 17 144 3z"></path>
<path d="M4640 3324 c-11 -27 -14 -374 -4 -410 3 -12 17 -28 31 -35 23 -12 27
-11 44 10 17 21 19 42 19 226 0 112 -3 210 -6 219 -3 9 -13 16 -22 16 -12 0
-13 -3 -4 -12 9 -9 12 -71 12 -219 0 -171 -3 -209 -15 -219 -12 -10 -18 -10
-30 0 -12 10 -15 47 -15 212 0 118 4 207 10 219 8 13 7 19 0 19 -6 0 -15 -12
-20 -26z"></path>
<path d="M5432 3453 c-13 -2 -38 -20 -56 -38 -38 -38 -53 -103 -41 -177 12
-70 30 -94 125 -158 77 -53 91 -68 100 -100 14 -52 -1 -93 -33 -88 -19 3 -23
10 -27 63 l-5 60 -75 0 -75 0 -3 -35 c-6 -58 8 -118 33 -149 65 -76 262 -74
323 4 27 34 37 122 23 193 -13 66 -46 105 -133 158 -32 19 -67 47 -78 61 -22
29 -26 73 -8 91 7 7 8 12 2 12 -19 0 -36 -46 -29 -79 7 -32 19 -43 132 -125
34 -25 70 -60 79 -77 22 -44 29 -135 12 -184 -32 -98 -227 -118 -307 -32 -19
21 -24 38 -25 84 l-1 58 55 0 55 0 3 -45 c5 -73 49 -102 88 -59 23 26 23 88 0
123 -9 14 -50 51 -93 83 -95 72 -115 98 -121 161 -12 134 80 205 228 174 75
-16 103 -46 104 -109 l1 -48 -43 -3 c-50 -4 -70 8 -74 45 -2 15 -8 28 -13 30
-7 2 -9 -13 -5 -44 l5 -48 75 0 75 0 3 47 c4 62 -18 112 -60 134 -33 17 -166
28 -216 17z"></path>
<path d="M2250 3120 l0 -330 75 0 75 0 0 172 c0 102 4 168 9 163 7 -8 51 -287
51 -325 0 -6 26 -10 58 -10 l59 0 18 148 c10 81 21 156 26 167 4 11 8 -52 8
-147 l1 -168 80 0 80 0 0 330 0 331 -117 -3 -118 -3 -15 -117 c-8 -64 -18
-119 -21 -123 -3 -3 -9 16 -13 42 -3 27 -11 83 -17 126 l-11 77 -114 0 -114 0
0 -330z"></path>
<path d="M3290 3191 c0 -277 -2 -291 -51 -291 -15 0 -19 -7 -19 -39 0 -68 3
-71 90 -71 161 0 160 -2 160 375 l0 285 -90 0 -90 0 0 -259z"></path>
<path d="M4055 3438 c-3 -7 -4 -155 -3 -328 l3 -315 80 0 80 0 5 138 c3 89 2
136 -5 134 -6 -2 -11 -53 -13 -117 -1 -63 -8 -120 -14 -127 -6 -7 -30 -13 -54
-13 -33 0 -46 5 -54 19 -6 12 -10 124 -10 294 0 253 1 275 18 290 22 20 71 22
95 5 13 -10 17 -33 19 -107 2 -52 8 -96 13 -98 6 -2 8 38 5 114 l-5 118 -78 3
c-56 2 -79 -1 -82 -10z"></path>
<path d="M4277 3444 c-4 -4 -7 -54 -7 -111 0 -79 3 -104 13 -101 8 3 13 32 15
88 2 46 8 90 14 97 13 17 69 17 91 1 16 -12 17 -40 15 -308 l-3 -295 -55 0
-55 0 -5 115 c-5 107 -11 140 -28 140 -4 0 -5 -62 -2 -137 l5 -138 83 0 83 0
2 325 2 325 -81 3 c-44 1 -83 0 -87 -4z"></path>
<path d="M4913 3434 c-3 -9 -3 -135 0 -280 6 -305 8 -312 92 -354 96 -47 223
-28 276 43 l24 32 0 285 0 285 -83 0 -83 0 1 -264 c0 -188 -3 -267 -11 -277
-15 -18 -8 -26 11 -14 12 8 16 53 18 262 2 160 7 257 14 265 13 16 72 17 99 3
18 -10 19 -24 19 -258 0 -215 -2 -251 -18 -281 -27 -54 -63 -74 -136 -79 -77
-5 -123 9 -161 48 -25 26 -29 40 -36 117 -4 48 -8 168 -8 265 -1 198 -1 198
72 198 65 0 67 -7 67 -283 0 -245 0 -246 23 -258 19 -11 20 -10 10 3 -9 11
-13 89 -15 284 l-3 269 -83 3 c-69 2 -83 0 -89 -14z"></path>
<path d="M5755 3438 c-3 -7 -4 -155 -3 -328 l3 -315 145 0 145 0 0 60 0 60
-56 3 -57 3 -5 57 c-6 78 3 92 59 92 l45 0 -3 58 -3 57 -47 3 -48 3 -2 40 c-4
91 -8 84 52 89 l55 5 0 60 0 60 -138 3 c-105 2 -139 0 -142 -10z m247 -25 c34
-30 16 -73 -31 -73 -39 0 -71 -37 -71 -82 0 -52 25 -88 60 -88 57 0 71 -71 15
-80 -56 -9 -68 -23 -73 -82 -5 -65 16 -108 53 -108 13 0 36 -4 50 -10 22 -8
26 -15 23 -42 l-3 -33 -114 -3 c-75 -2 -118 1 -127 9 -11 9 -14 64 -14 292 0
338 -8 317 123 317 70 0 95 -4 109 -17z"></path>
</g>
</svg>